<?xml version="1.0"?>
<svg xmlns="http://www.w3.org/2000/svg" height="512px" viewBox="-92 0 512 512" width="512px"><g><path d="m318 0h-308c-5.414062 0-10 4.535156-10 10.007812v86.003907c0 2.691406 1.078125 5.277343 3.011719 7.160156l107.628906 105.5c-60.859375 21.277344-104.640625 79.277344-104.640625 147.316406 0 86.03125 69.980469 156.011719 156 156.011719s156-69.980469 156-156.011719c0-68.199219-43.988281-126.316406-105.078125-147.46875l112.117187-111.398437c1.902344-1.871094 2.960938-4.4375 2.960938-7.113282v-79.988281c0-5.53125-4.480469-10.019531-10-10.019531zm-27.289062 20.039062-42.519532 39.953126h-172.28125l-41.191406-39.953126zm-62.742188 59.992188-65.96875 65.972656-65.96875-65.972656zm70.03125 275.957031c0 74.980469-61.011719 135.976563-136 135.976563s-136-60.996094-136-135.976563c0-62.847656 42.871094-115.867187 100.898438-131.375 7.863281-2.105469 16-3.515625 24.351562-4.167969 3.550781-.28125 7.128906-.421874 10.75-.421874 3.539062 0 7.050781.140624 10.519531.410156 8.320313.632812 16.441407 2.023437 24.28125 4.097656 58.179688 15.410156 101.199219 68.507812 101.199219 131.457031zm10-270.148437-117.519531 116.75c-9.230469-1.710938-18.75-2.605469-28.480469-2.605469-9.871094 0-19.519531.921875-28.878906 2.6875l-113.121094-110.878906v-58.128907l.421875.410157 10.269531 9.957031 34.160156 33.125.046876.058594.121093.109375 89.921875 89.917969c3.898438 3.910156 10.21875 3.910156 14.117188 0l89.921875-89.917969.109375-.109375 48.910156-45.945313zm0 0" data-original="#000000" class="active-path" data-old_color="#000000" fill="#4A4A4A"/><path d="m162 462.003906c-58.449219 0-106-47.558594-106-106.011718 0-58.457032 47.550781-106.011719 106-106.011719s106 47.554687 106 106.011719c0 58.453124-47.550781 106.011718-106 106.011718zm0-191.984375c-47.421875 0-86 38.566407-86 85.972657s38.578125 85.976562 86 85.976562 86-38.570312 86-85.976562-38.578125-85.972657-86-85.972657zm0 0" data-original="#000000" class="active-path" data-old_color="#000000" fill="#4A4A4A"/><path d="m162.019531 50.597656c-5.523437 0-10.003906-4.476562-10.003906-10 0-5.519531 4.472656-10 9.996094-10h.007812c5.523438 0 10 4.480469 10 10 0 5.523438-4.476562 10-10 10zm0 0" data-original="#000000" class="active-path" data-old_color="#000000" fill="#4A4A4A"/><path d="m189.660156 405.800781c-1.609375 0-3.226562-.390625-4.703125-1.175781l-21.136719-11.285156-21.214843 11.121094c-3.375 1.769531-7.457031 1.464843-10.535157-.785157-3.078124-2.25-4.609374-6.054687-3.953124-9.8125l4.144531-23.773437-17.109375-16.910156c-2.703125-2.675782-3.664063-6.65625-2.472656-10.273438 1.191406-3.617188 4.328124-6.242188 8.089843-6.777344l23.703125-3.375 10.683594-21.574218c1.691406-3.414063 5.160156-5.566407 8.960938-5.566407h.035156c3.816406.015625 7.285156 2.199219 8.957031 5.632813l10.519531 21.660156 23.679688 3.554688c3.757812.566406 6.871094 3.21875 8.035156 6.84375s.175781 7.597656-2.550781 10.253906l-17.234375 16.769531 3.964844 23.804687c.628906 3.761719-.933594 7.554688-4.027344 9.785157-1.734375 1.246093-3.78125 1.882812-5.835938 1.882812zm-25.796875-33.8125c1.617188 0 3.234375.394531 4.707031 1.179688l7.886719 4.210937-1.488281-8.929687c-.539062-3.242188.542969-6.542969 2.894531-8.835938l6.511719-6.335937-8.914062-1.335938c-3.261719-.488281-6.070313-2.554687-7.511719-5.523437l-3.917969-8.070313-3.980469 8.039063c-1.464843 2.957031-4.289062 5.003906-7.554687 5.464843l-8.921875 1.269532 6.460937 6.390625c2.335938 2.308593 3.394532 5.617187 2.828125 8.855469l-1.554687 8.914062 7.921875-4.148438c1.449219-.761718 3.042969-1.144531 4.632812-1.144531zm0 0" data-original="#000000" class="active-path" data-old_color="#000000" fill="#4A4A4A"/></g> </svg>
